<svg xmlns="http://www.w3.org/2000/svg" xmlns:xlink="http://www.w3.org/1999/xlink" width="450" height="450" viewBox="0 0 450 450"><path fill="#EFEFEE" d="M450 225c0 124.263-100.738 225-225 225C100.738 450 0 349.263 0 225 0 100.734 100.737 0 225 0c124.262 0 225 100.734 225 225z"/><defs><path id="a" d="M450 225c0 124.263-100.738 225-225 225C100.738 450 0 349.263 0 225 0 100.734 100.737 0 225 0c124.262 0 225 100.734 225 225z"/></defs><clipPath id="b"><use xlink:href="#a" overflow="visible"/></clipPath><g clip-path="url(#b)"><path fill="#3D3D3C" d="M329.1 283.805c1.724-.382 3.53-.652 5.423-.808 1.89-.156 3.82-.135 5.805.067 1.977.204 4.012.633 6.104 1.28 2.095.64 4.23 1.567 6.41 2.775 2.965 1.637 5.44 3.542 7.424 5.705 1.986 2.17 3.43 4.49 4.326 6.97.902 2.48 1.236 5.06 1.006 7.73-.235 2.68-1.088 5.345-2.563 8.004-1.428 2.594-3.045 4.628-4.84 6.1-1.802 1.48-3.654 2.6-5.566 3.367-1.92.77-3.818 1.288-5.716 1.58-1.898.286-3.69.553-5.385.798-1.694.243-3.214.56-4.564.948-1.346.386-2.412 1.082-3.186 2.076l-5.308 6.818-8.645-4.782 3.742-8.815c.06-.19.122-.342.187-.465l.242-.432c.827-1.504 1.925-2.6 3.288-3.29 1.36-.694 2.875-1.22 4.535-1.566 1.662-.345 3.395-.622 5.2-.83 1.808-.204 3.568-.53 5.286-.98 1.718-.453 3.328-1.15 4.833-2.103 1.506-.946 2.768-2.345 3.78-4.188.68-1.224 1.06-2.45 1.14-3.682.075-1.223-.1-2.408-.535-3.562-.433-1.15-1.113-2.234-2.05-3.238-.934-1.005-2.067-1.88-3.393-2.61-1.945-1.078-3.71-1.77-5.29-2.092-1.585-.32-2.99-.474-4.216-.462-1.237.012-2.29.05-3.177.113-.88.068-1.578-.033-2.088-.317-1.23-.684-1.832-1.686-1.81-3.008l-.405-7.103zm-23.68 65.634c.582-1.058 1.336-1.952 2.254-2.69.92-.742 1.92-1.26 2.996-1.55 1.076-.295 2.2-.385 3.38-.268 1.187.12 2.323.48 3.41 1.086 1.06.58 1.954 1.343 2.68 2.283.727.93 1.243 1.936 1.55 2.99.306 1.06.398 2.18.28 3.36-.12 1.183-.472 2.303-1.054 3.355-.607 1.095-1.37 1.993-2.3 2.705-.923.712-1.92 1.218-2.98 1.522-1.056.308-2.175.384-3.34.25-1.177-.133-2.288-.49-3.343-1.076-1.094-.604-2.008-1.366-2.742-2.283-.74-.922-1.27-1.917-1.597-2.98-.316-1.07-.418-2.184-.29-3.335.128-1.155.495-2.277 1.097-3.37zM80.504 257.15c.483-1.273 1.072-2.55 1.77-3.834.705-1.28 1.537-2.518 2.508-3.706.967-1.19 2.107-2.314 3.405-3.39 1.303-1.072 2.804-2.06 4.508-2.952 2.31-1.215 4.582-2 6.82-2.36 2.233-.36 4.34-.306 6.32.163 1.973.472 3.77 1.35 5.397 2.634 1.62 1.284 2.98 2.963 4.068 5.034 1.062 2.02 1.69 3.92 1.876 5.707.192 1.78.127 3.447-.19 5.004-.317 1.562-.787 3.01-1.402 4.354-.62 1.337-1.208 2.604-1.765 3.8-.562 1.193-1.004 2.308-1.327 3.34-.32 1.032-.326 2.01-.01 2.93l2.14 6.306-6.74 3.537-4.09-6.145c-.096-.117-.17-.225-.216-.318-.046-.092-.105-.2-.175-.338-.617-1.166-.86-2.34-.727-3.51.13-1.172.437-2.366.914-3.585.48-1.216 1.032-2.45 1.666-3.7.635-1.247 1.167-2.52 1.61-3.816.433-1.298.666-2.636.696-4.002.024-1.368-.343-2.77-1.098-4.208-.5-.955-1.128-1.72-1.886-2.285-.754-.572-1.6-.963-2.523-1.172-.92-.21-1.9-.227-2.948-.054-1.045.175-2.083.537-3.12 1.08-1.52.793-2.712 1.636-3.585 2.517-.878.892-1.575 1.73-2.087 2.522-.518.8-.938 1.497-1.27 2.092-.33.6-.692 1-1.09 1.212-.96.5-1.86.465-2.703-.107l-4.748-2.75zm32.22 43.046c-.432-.823-.693-1.686-.776-2.592-.083-.902.007-1.767.272-2.585.267-.814.687-1.58 1.26-2.288.578-.712 1.293-1.29 2.142-1.738.826-.433 1.69-.683 2.61-.758.908-.067 1.764.02 2.578.272.81.25 1.572.667 2.284 1.242.712.576 1.28 1.28 1.71 2.104.45.852.707 1.723.77 2.622s-.03 1.753-.283 2.563c-.25.81-.668 1.562-1.25 2.258-.586.7-1.288 1.266-2.11 1.696-.85.446-1.733.712-2.636.797-.905.084-1.772.004-2.595-.234-.82-.247-1.58-.654-2.268-1.23-.69-.565-1.258-1.28-1.708-2.13z" opacity=".2"/><path d="M243.027 182.085c13.358-3.057 22.504-14.146 22.615-27.42.112-13.123-8.48-24.274-21.25-27.578-12.354-3.19-24.982 2.23-31.378 13.468-6.173 10.834-4.426 24.703 4.403 33.518 3.617 3.604 7.43 6.938 7.584 12.615.047 1.805-.162 3.47-.575 5.02.432.123.86.247 1.288.387 2.512-6.124 9.46-8.21 17.314-10.01z" fill="none"/><path opacity=".8" fill="#AFAFAF" enable-background="new" d="M250.365 295.55c-.434-1.177-.3-1.973.416-2.94 3.308-4.467 5.09-9.524 5.522-15.043.656-8.54-1.877-16.033-7.48-22.633-.403.478-.68.813-.962 1.15-6.842 8.164-15.418 13.408-25.925 15.355-5.084.937-9.574-1.99-10.566-6.76-1.017-4.868 1.957-9.357 7.006-10.61 1.3-.324 2.626-.572 3.887-1.005 4.28-1.462 8-3.77 11.058-7.387-.632-.188-1.052-.34-1.478-.437-13.336-2.845-27.823 4.47-33.427 16.877-8.007 17.706 1.572 37.63 20.374 42.53.742.194 1.602 1.005 1.886 1.728 2.17 5.584 4.164 11.232 6.33 16.82.323.825 1.108 1.675 1.9 2.08 3.145 1.605 6.386 3.04 9.655 4.568-1.73 3.837-3.395 7.51-5.065 11.21l11.123 5.16-5.088 11.208c3.8 1.764 7.422 3.443 11.135 5.163-1.527 3.373-3.004 6.656-4.55 10.078 6.49 2.988 12.77 5.872 19.038 8.76.28-.405.51-.64.64-.925 2.8-6.067 5.628-12.126 8.325-18.235.326-.74.188-1.864-.105-2.67-7.843-21.36-15.724-42.704-23.648-64.04zM205.172 304.794c-3.56-2.438-6.506-5.5-8.986-9.02-9.692-13.75-8.41-33.042 3.06-45.144 1.824-1.92 3.85-3.638 5.935-5.6-.88-.2-1.65-.428-2.437-.548-11.363-1.713-22.738 3.916-27.807 13.747-5.55 10.77-3.755 22.966 4.69 31.547.89.913 1.137 1.76.887 3.032-.982 4.998-1.87 10.008-2.675 15.037-.132.818.13 1.87.578 2.58 1.618 2.563 3.388 5.02 5.188 7.642-3.043 2.143-5.91 4.17-8.83 6.223 2.106 3.08 4.072 5.937 6.113 8.91-3.032 2.125-5.886 4.122-8.84 6.198 2.055 2.993 4.055 5.91 6.116 8.922-2.72 1.914-5.292 3.73-7.94 5.595 3.588 5.16 7.068 10.156 10.623 15.286 5.266-3.667 10.44-7.238 15.565-10.875.436-.305.69-1.03.793-1.604 2.996-16.53 5.95-33.074 8.958-49.6.207-1.122-.082-1.715-.988-2.33z"/><path fill="#5E5E5E" d="M196.726 194.483c-11.966 6.16-20.706 18.48-20.75 33.603-.023 5.605 1.115 10.964 3.552 16.114 1.743-.996 3.33-1.905 5.113-2.923-.255-.695-.456-1.284-.677-1.872-4.425-11.69-1.337-25.438 7.657-34.027 2.99-2.855 6.345-5.01 9.876-6.522-.075-.057-.148-.1-.22-.156-1.623-1.342-3.11-2.76-4.55-4.217zM241.594 212.035c5.998 10.226 5.926 23.543-.81 33.617-4.948 7.414-11.69 12.094-20.393 13.995-2.518.55-3.71 1.995-3.262 3.82.448 1.855 2.063 2.586 4.643 2.007 11.248-2.544 19.806-8.76 25.392-18.89 6.45-11.704 6.186-25.044.547-35.873-.18.035-.353.076-.534.11-1.162.22-3.2.824-5.582 1.215zM225.713 192.092c-.43-.14-.856-.263-1.288-.386-.556 2.087-1.545 3.914-2.96 5.48 1.093.264 2.17.59 3.236.978-.007-.586 0-1.186.047-1.813.113-1.616.455-3.014.966-4.258z"/><path fill="#ddd" d="M185.767 130.958c-7.244 14.024-7.845 20.348-3.983 36.396 2.54 10.568 7.533 19.618 14.942 27.13 8.292-4.27 18.125-5.568 27.7-2.777.413-1.55.622-3.215.576-5.02-.155-5.68-3.967-9.012-7.584-12.615-8.83-8.814-10.576-22.684-4.403-33.518 6.396-11.24 19.025-16.658 31.377-13.468 12.77 3.304 21.363 14.456 21.25 27.58-.11 13.272-9.256 24.36-22.615 27.418-7.854 1.8-14.803 3.887-17.313 10.007 1.68.56 3.35 1.233 5 2.05 7.63 3.783 13.4 9.67 16.995 16.572 13.22-2.583 24.774-8.534 33.118-19.28 15.557-20.026 30.69-40.373 45.863-60.69 1.757-2.353 3.597-3.06 6.355-3.03 10.72.122 14.66-.062 25.2.113v-76.74c-25.677-.006-44.878-.006-70.788-.006-46.676 0-93.347-.014-140.016.008-8.587.002-14.098 5.063-14.098 12.825-.003 7.497 5.397 12.48 13.834 12.712 2.52.068 5.054.01 7.577.01-1.27 1.23-2.546 1.806-3.856 2.268-17.24 6.064-34.51 12.048-51.704 18.237-2.712.974-5.516 2.398-7.558 4.372-4.382 4.218-4.852 10.797-1.75 15.96 3.14 5.228 9.345 7.818 15.37 5.807 12.792-4.274 25.495-8.835 38.23-13.3 7.778-2.73 15.547-5.48 23.32-8.223-.852 1.402-1.953 2.247-3.11 3.005-22.085 14.338-44.186 28.65-66.252 43.022-2.11 1.372-4.318 2.784-5.99 4.62-4.817 5.28-4.854 13.65-.374 19.007 4.855 5.814 12.78 7.165 19.432 2.918 13.297-8.48 38.103-25.363 51.624-33.386"/><path opacity=".6" fill="#C1C1C1" enable-background="new" d="M287.105 96.624c-29.047 8.116-58.765 14.313-86.128 27.433-5.054 2.42-10.126 4.697-15.21 6.9-4.788 11.498-9.237 16.835-3.983 36.397 2.82 10.5 7.533 19.618 14.942 27.13 8.292-4.27 18.125-5.568 27.7-2.777.413-1.55.622-3.215.576-5.02-.155-5.68-3.967-9.012-7.584-12.615-8.83-8.814-10.576-22.684-4.403-33.518 6.396-11.24 19.025-16.658 31.377-13.468 12.77 3.304 21.363 14.456 21.25 27.58-.11 13.272-9.256 24.36-22.615 27.418-7.854 1.8-14.803 3.887-17.313 10.007 1.68.56 3.35 1.233 5 2.05 7.63 3.783 13.4 9.67 16.995 16.572 13.22-2.583 24.774-8.534 33.118-19.28 15.557-20.026 30.69-40.373 45.863-60.69 1.757-2.353 3.597-3.06 6.355-3.03 10.72.122 14.66-.062 25.2.113V76.088c-23.804 6.496-47.366 13.895-71.14 20.536z"/><g opacity=".8" fill="#C1C1C1"><path d="M224.702 198.165c.183 9.285 6.93 12.904 6.93 12.904 3.1 1.615 6.825 1.478 9.962.964-1.295-2.206-2.863-4.284-4.727-6.138-3.596-3.593-7.76-6.144-12.165-7.73zM201.495 198.855c4.712 3.776 10.16 4.406 15.585 1.655 1.776-.9 3.212-2.03 4.386-3.326-6.618-1.614-13.595-1.065-19.97 1.67zM230.715 194.14c-1.652-.816-3.322-1.49-5-2.05-.513 1.245-.855 2.645-.967 4.26-.046.63-.054 1.23-.046 1.814 4.405 1.587 8.57 4.14 12.166 7.732 1.862 1.854 3.432 3.932 4.728 6.138 2.383-.39 4.42-.996 5.58-1.213.184-.033.355-.074.534-.108-3.597-6.902-9.366-12.788-16.995-16.572z"/></g><path fill="#5E5E5E" d="M196.726 194.483c1.44 1.456 2.928 2.875 4.55 4.216.072.057.145.1.22.155 6.376-2.736 13.353-3.285 19.97-1.67 1.415-1.565 2.404-3.393 2.96-5.48-9.576-2.79-19.408-1.49-27.7 2.778z"/><path fill="#2B2B2B" d="M373.076 49.206c-6.765-.003-13.28-.003-19.64-.003v80.425c6.013-.01 11.8-.02 19.64.04V49.205z"/><path fill="#E42161" d="M456.334 45.027c-1.834-.02-3.6-.032-5.35-.032-28.11 0-54.74 0-80.51-.002v88.836c20.553-.013 55.08.067 85.858.09l.002-88.893z"/></g><defs><path id="c" d="M450 225c0 124.263-100.738 225-225 225C100.738 450 0 349.263 0 225 0 100.734 100.737 0 225 0c124.262 0 225 100.734 225 225z"/></defs><clipPath id="d"><use xlink:href="#c" overflow="visible"/></clipPath><path clip-path="url(#d)" fill="#F8F7F6" d="M402.506 116.81c0 4.166-3.375 7.55-7.543 7.55s-7.545-3.384-7.545-7.55c0-4.17 3.377-7.547 7.545-7.547s7.543 3.378 7.543 7.548z"/></svg>